<svg width="400" height="400" xmlns="http://www.w3.org/2000/svg">
  <defs>
    <pattern id="grid" width="50" height="50" patternUnits="userSpaceOnUse">
      <path d="M10,0 L40,0 L40,10 L50,10 L50,40 L40,40 L40,50 L10,50 L10,40 L0,40 L0,10 L10,10 Z" fill="none" stroke="#2a76d2" stroke-width="1" opacity="0.2"/>
      <circle cx="25" cy="25" r="3" fill="#2a76d2" opacity="0.3" />
    </pattern>
  </defs>
  <rect width="100%" height="100%" fill="url(#grid)" />
  <g>
    <!-- Lines connecting nodes -->
    <line x1="25" y1="25" x2="75" y2="75" stroke="#2a76d2" stroke-width="1" opacity="0.2"/>
    <line x1="125" y1="25" x2="75" y2="75" stroke="#2a76d2" stroke-width="1" opacity="0.2"/>
    <line x1="125" y1="25" x2="175" y2="75" stroke="#2a76d2" stroke-width="1" opacity="0.2"/>
    <line x1="225" y1="25" x2="175" y2="75" stroke="#2a76d2" stroke-width="1" opacity="0.2"/>
    <line x1="225" y1="25" x2="275" y2="75" stroke="#2a76d2" stroke-width="1" opacity="0.2"/>
    <line x1="325" y1="25" x2="275" y2="75" stroke="#2a76d2" stroke-width="1" opacity="0.2"/>
    <line x1="325" y1="25" x2="375" y2="75" stroke="#2a76d2" stroke-width="1" opacity="0.2"/>
    
    <line x1="25" y1="125" x2="75" y2="175" stroke="#2a76d2" stroke-width="1" opacity="0.2"/>
    <line x1="125" y1="125" x2="75" y2="175" stroke="#2a76d2" stroke-width="1" opacity="0.2"/>
    <line x1="125" y1="125" x2="175" y2="175" stroke="#2a76d2" stroke-width="1" opacity="0.2"/>
    <line x1="225" y1="125" x2="175" y2="175" stroke="#2a76d2" stroke-width="1" opacity="0.2"/>
    <line x1="225" y1="125" x2="275" y2="175" stroke="#2a76d2" stroke-width="1" opacity="0.2"/>
    <line x1="325" y1="125" x2="275" y2="175" stroke="#2a76d2" stroke-width="1" opacity="0.2"/>
    <line x1="325" y1="125" x2="375" y2="175" stroke="#2a76d2" stroke-width="1" opacity="0.2"/>
    
    <line x1="25" y1="225" x2="75" y2="275" stroke="#2a76d2" stroke-width="1" opacity="0.2"/>
    <line x1="125" y1="225" x2="75" y2="275" stroke="#2a76d2" stroke-width="1" opacity="0.2"/>
    <line x1="125" y1="225" x2="175" y2="275" stroke="#2a76d2" stroke-width="1" opacity="0.2"/>
    <line x1="225" y1="225" x2="175" y2="275" stroke="#2a76d2" stroke-width="1" opacity="0.2"/>
    <line x1="225" y1="225" x2="275" y2="275" stroke="#2a76d2" stroke-width="1" opacity="0.2"/>
    <line x1="325" y1="225" x2="275" y2="275" stroke="#2a76d2" stroke-width="1" opacity="0.2"/>
    <line x1="325" y1="225" x2="375" y2="275" stroke="#2a76d2" stroke-width="1" opacity="0.2"/>
    
    <line x1="25" y1="325" x2="75" y2="375" stroke="#2a76d2" stroke-width="1" opacity="0.2"/>
    <line x1="125" y1="325" x2="75" y2="375" stroke="#2a76d2" stroke-width="1" opacity="0.2"/>
    <line x1="125" y1="325" x2="175" y2="375" stroke="#2a76d2" stroke-width="1" opacity="0.2"/>
    <line x1="225" y1="325" x2="175" y2="375" stroke="#2a76d2" stroke-width="1" opacity="0.2"/>
    <line x1="225" y1="325" x2="275" y2="375" stroke="#2a76d2" stroke-width="1" opacity="0.2"/>
    <line x1="325" y1="325" x2="275" y2="375" stroke="#2a76d2" stroke-width="1" opacity="0.2"/>
    <line x1="325" y1="325" x2="375" y2="375" stroke="#2a76d2" stroke-width="1" opacity="0.2"/>
  </g>
</svg>