<svg width="360" height="240" viewBox="0 0 360 240" fill="none" xmlns="http://www.w3.org/2000/svg">
  <rect width="360" height="240" rx="12" fill="url(#paint0_linear)" />
  <mask id="mask0" style="mask-type:alpha" maskUnits="userSpaceOnUse" x="0" y="0" width="360" height="240">
    <rect width="360" height="240" rx="12" fill="white" />
  </mask>
  <g mask="url(#mask0)">
    <circle cx="40" cy="220" r="100" fill="url(#paint1_radial)" fill-opacity="0.4" />
    <circle cx="320" cy="40" r="80" fill="url(#paint2_radial)" fill-opacity="0.3" />
    <circle cx="180" cy="120" r="160" stroke="white" stroke-opacity="0.05" stroke-width="40" />
    <circle cx="180" cy="120" r="120" stroke="white" stroke-opacity="0.05" stroke-width="2" stroke-dasharray="6 6" />
    <g opacity="0.2">
      <path d="M60 60L80 80M120 40L140 60M180 20L200 40M240 40L260 60M300 60L320 80" stroke="white" stroke-opacity="0.6" />
      <path d="M60 180L80 160M120 200L140 180M180 220L200 200M240 200L260 180M300 180L320 160" stroke="white" stroke-opacity="0.6" />
    </g>
  </g>
  <defs>
    <linearGradient id="paint0_linear" x1="0" y1="0" x2="360" y2="240" gradientUnits="userSpaceOnUse">
      <stop stop-color="#1F2937" />
      <stop offset="1" stop-color="#111827" />
    </linearGradient>
    <radialGradient id="paint1_radial" cx="0" cy="0" r="1" gradientUnits="userSpaceOnUse" gradientTransform="translate(40 220) rotate(-90) scale(100)">
      <stop stop-color="#3B82F6" />
      <stop offset="1" stop-color="#3B82F6" stop-opacity="0" />
    </radialGradient>
    <radialGradient id="paint2_radial" cx="0" cy="0" r="1" gradientUnits="userSpaceOnUse" gradientTransform="translate(320 40) rotate(-90) scale(80)">
      <stop stop-color="#10B981" />
      <stop offset="1" stop-color="#10B981" stop-opacity="0" />
    </radialGradient>
  </defs>
</svg>