<svg width="1440" height="560" viewBox="0 0 1440 560" fill="none" xmlns="http://www.w3.org/2000/svg">
  <rect width="1440" height="560" fill="url(#paint0_linear)"/>
  <g opacity="0.2">
    <path d="M344 96L424 176M584 16L664 96M824 -64L904 16M1064 16L1144 96M1304 96L1384 176" stroke="white" strokeOpacity="0.6"/>
    <path d="M344 416L424 336M584 496L664 416M824 576L904 496M1064 496L1144 416M1304 416L1384 336" stroke="white" strokeOpacity="0.6"/>
  </g>
  <g opacity="0.15">
    <circle cx="720" cy="280" r="320" stroke="white" strokeOpacity="0.5" strokeWidth="2" strokeDasharray="6 6"/>
    <circle cx="720" cy="280" r="240" stroke="white" strokeOpacity="0.5" strokeWidth="2" strokeDasharray="6 6"/>
    <circle cx="720" cy="280" r="160" stroke="white" strokeOpacity="0.5" strokeWidth="2" strokeDasharray="6 6"/>
    <circle cx="720" cy="280" r="80" stroke="white" strokeOpacity="0.5" strokeWidth="2" strokeDasharray="6 6"/>
  </g>
  <circle cx="120" cy="480" r="160" fill="url(#paint1_radial)" fillOpacity="0.3"/>
  <circle cx="1320" cy="80" r="160" fill="url(#paint2_radial)" fillOpacity="0.3"/>
  <defs>
    <linearGradient id="paint0_linear" x1="0" y1="0" x2="1440" y2="560" gradientUnits="userSpaceOnUse">
      <stop stopColor="#2563EB"/>
      <stop offset="1" stopColor="#10B981"/>
    </linearGradient>
    <radialGradient id="paint1_radial" cx="0" cy="0" r="1" gradientUnits="userSpaceOnUse" gradientTransform="translate(120 480) rotate(-90) scale(160)">
      <stop stopColor="white"/>
      <stop offset="1" stopColor="white" stopOpacity="0"/>
    </radialGradient>
    <radialGradient id="paint2_radial" cx="0" cy="0" r="1" gradientUnits="userSpaceOnUse" gradientTransform="translate(1320 80) rotate(-90) scale(160)">
      <stop stopColor="white"/>
      <stop offset="1" stopColor="white" stopOpacity="0"/>
    </radialGradient>
  </defs>
</svg>