<svg width="112" height="32" viewBox="0 0 112 32" fill="none" xmlns="http://www.w3.org/2000/svg">
  <rect width="112" height="32" rx="4" fill="white" fill-opacity="0.1"/>
  <path d="M27 16C27 11.0294 31.0294 7 36 7H76C80.9706 7 85 11.0294 85 16C85 20.9706 80.9706 25 76 25H36C31.0294 25 27 20.9706 27 16Z" fill="white" fill-opacity="0.2"/>
  <path d="M38 16C38 14.3431 39.3431 13 41 13H47C48.6569 13 50 14.3431 50 16C50 17.6569 48.6569 19 47 19H41C39.3431 19 38 17.6569 38 16Z" fill="white"/>
  <path d="M54 16C54 14.3431 55.3431 13 57 13H63C64.6569 13 66 14.3431 66 16C66 17.6569 64.6569 19 63 19H57C55.3431 19 54 17.6569 54 16Z" fill="white"/>
  <path d="M70 16C70 14.3431 71.3431 13 73 13H74C75.6569 13 77 14.3431 77 16C77 17.6569 75.6569 19 74 19H73C71.3431 19 70 17.6569 70 16Z" fill="white"/>
</svg>